<?xml version="1.0" encoding="UTF-8"?>
<svg version="1.1" xmlns="http://www.w3.org/2000/svg" width="128" height="128">
<path d="M0 0 C0.85682373 0.42635742 1.71364746 0.85271484 2.59643555 1.29199219 C3.57765381 1.77216797 4.55887207 2.25234375 5.56982422 2.74707031 C6.61372314 3.27236328 7.65762207 3.79765625 8.7331543 4.33886719 C10.96467345 5.43833649 13.19645225 6.53727892 15.4284668 7.63574219 C16.57605469 8.20486328 17.72364258 8.77398437 18.90600586 9.36035156 C22.39466424 11.07608519 25.8990734 12.75335458 29.4128418 14.41699219 C30.5352124 14.94905273 31.65758301 15.48111328 32.81396484 16.02929688 C34.96539487 17.04784983 37.11785827 18.06422369 39.27148438 19.078125 C40.25270264 19.54573242 41.2339209 20.01333984 42.24487305 20.49511719 C43.53010864 21.10323242 43.53010864 21.10323242 44.84130859 21.72363281 C47.96107814 23.37491074 50.66861848 24.84938356 53.4206543 27.08886719 C54.1960144 30.26963806 54.1960144 30.26963806 54.22875977 34.07299805 C54.24248627 34.76780777 54.25621277 35.46261749 54.27035522 36.17848206 C54.30690445 38.47106091 54.29922009 40.76090386 54.2878418 43.05371094 C54.29696563 44.65028269 54.30757684 46.24684658 54.3196106 47.84339905 C54.33747489 51.1884859 54.33262762 54.53261793 54.31274414 57.87768555 C54.28976444 62.16055297 54.3301704 66.44012222 54.38857841 70.72255611 C54.42531173 74.01962646 54.42471697 77.31590691 54.41330338 80.61313057 C54.412997 82.19159129 54.4250827 83.77010565 54.44988632 85.34837151 C54.61461805 97.54966413 54.61461805 97.54966413 51.92503357 101.01695251 C49.81109319 102.39467126 47.79076982 103.2292432 45.4206543 104.08886719 C43.82182443 104.8967779 42.22996933 105.71860611 40.64453125 106.55249023 C38.90158617 107.40647021 37.15628098 108.25564613 35.40893555 109.10058594 C34.47768356 109.5548848 33.54643158 110.00918365 32.58695984 110.47724915 C30.63239321 111.42970829 28.67679465 112.38005244 26.72021484 113.32836914 C23.72932135 114.77822524 20.7417431 116.2347386 17.75463867 117.69238281 C15.84792704 118.6205064 13.94103229 119.54825393 12.03393555 120.47558594 C11.1442659 120.90892746 10.25459625 121.34226898 9.33796692 121.78874207 C7.03827014 122.90222177 4.73222206 124.00029474 2.4206543 125.08886719 C1.52113037 125.51401611 0.62160645 125.93916504 -0.30517578 126.37719727 C-5.81414067 128.10115139 -9.66606432 126.92030096 -14.70043945 124.41308594 C-15.87292236 123.83727783 -17.04540527 123.26146973 -18.25341797 122.66821289 C-19.50800714 122.03782302 -20.76248068 121.40720296 -22.0168457 120.77636719 C-23.30783479 120.13738453 -24.59942702 119.49961908 -25.89160156 118.86303711 C-27.86106281 117.89235075 -29.82994818 116.92062681 -31.79658508 115.94422913 C-38.98755915 112.37517394 -46.24930822 108.95663216 -53.52050781 105.55444336 C-54.39715088 105.13912354 -55.27379395 104.72380371 -56.17700195 104.29589844 C-56.93505127 103.93987549 -57.69310059 103.58385254 -58.47412109 103.21704102 C-60.84732078 101.94526139 -62.63864476 100.98286531 -64.5793457 99.08886719 C-65.11419678 96.02835083 -65.11419678 96.02835083 -65.16040039 92.21826172 C-65.18055206 91.17626617 -65.18055206 91.17626617 -65.20111084 90.11322021 C-65.23912064 87.81574938 -65.2469208 85.51944539 -65.2512207 83.22167969 C-65.26407404 81.62368285 -65.27753057 80.02569076 -65.29156494 78.42770386 C-65.31552305 75.07685437 -65.32292554 71.72641739 -65.32055664 68.37548828 C-65.32015026 64.08489628 -65.37473479 59.7969543 -65.44364548 55.50699043 C-65.4881654 52.20571802 -65.4962325 48.90508419 -65.49411774 45.60354233 C-65.49883333 44.02224471 -65.5165023 42.44092997 -65.5474472 40.85992813 C-65.76471105 28.61218062 -65.76471105 28.61218062 -63.07032776 25.14962769 C-60.95854485 23.77566724 -58.9475126 22.94126624 -56.5793457 22.08886719 C-55.05219146 21.31703333 -53.53202647 20.53124013 -52.01855469 19.73291016 C-50.37310677 18.9276629 -48.72529797 18.12722606 -47.07543945 17.33105469 C-46.19332291 16.90132355 -45.31120636 16.47159241 -44.40235901 16.02883911 C-42.55034325 15.12764805 -40.69729436 14.22857733 -38.84326172 13.33154297 C-36.01923786 11.96502473 -33.19846293 10.59198058 -30.37817383 9.21777344 C-28.56911476 8.33848498 -26.759876 7.4595661 -24.95043945 6.58105469 C-23.69704018 5.971595 -23.69704018 5.971595 -22.4183197 5.349823 C-20.14426339 4.25057736 -17.86321683 3.16753658 -15.5793457 2.08886719 C-14.62561569 1.62096771 -14.62561569 1.62096771 -13.65261841 1.14361572 C-8.81837283 -1.12047541 -5.08435917 -1.79600837 0 0 Z " fill="#4E6CA6" transform="translate(69.579345703125,0.9111328125)"/>
<path d="M0 0 C0.77320084 0.38856674 1.54640167 0.77713348 2.34303284 1.17747498 C3.15438187 1.57558884 3.9657309 1.9737027 4.80166626 2.38388062 C7.37345727 3.64840795 9.93830535 4.92634876 12.50318909 6.20481873 C14.25339793 7.06834576 16.00404483 7.93098554 17.75514221 8.79270935 C22.03046232 10.8990117 26.29961124 13.0173637 30.56568909 15.14231873 C29.56568909 18.14231873 29.56568909 18.14231873 27.61061096 19.3657074 C26.76047424 19.75991882 25.91033752 20.15413025 25.03443909 20.56028748 C24.07666565 21.01081482 23.11889221 21.46134216 22.13209534 21.92552185 C21.12018127 22.38893982 20.10826721 22.85235779 19.06568909 23.32981873 C18.11565002 23.77390076 17.16561096 24.21798279 16.18678284 24.67552185 C12.98317473 26.17180522 9.77424199 27.65666835 6.56568909 29.14231873 C0.95568909 31.78231873 -4.65431091 34.42231873 -10.43431091 37.14231873 C-10.76431091 53.97231873 -11.09431091 70.80231873 -11.43431091 88.14231873 C-21.55825458 84.76767084 -21.55825458 84.76767084 -25.77415466 82.61888123 C-26.69261169 82.15481873 -27.61106873 81.69075623 -28.55735779 81.21263123 C-29.48612732 80.7356781 -30.41489685 80.25872498 -31.37181091 79.76731873 C-32.29671326 79.29809998 -33.2216156 78.82888123 -34.17454529 78.34544373 C-36.01627835 77.41102555 -37.85663969 76.47389825 -39.69554138 75.53392029 C-43.29510966 73.70493659 -46.91505622 71.91799238 -50.53807068 70.13597107 C-52.43431091 69.14231873 -52.43431091 69.14231873 -53.43431091 68.14231873 C-53.56937927 66.54347116 -53.6360197 64.9387757 -53.67478943 63.33470154 C-53.70053543 62.30983643 -53.72628143 61.28497131 -53.75280762 60.22904968 C-53.83674305 55.52773282 -53.90284468 50.82658147 -53.94920349 46.1247406 C-53.98085374 43.64336126 -54.02861768 41.16213337 -54.09275818 38.68138123 C-54.18388638 35.11048797 -54.22279762 31.54232333 -54.25071716 27.97044373 C-54.28887039 26.86195068 -54.32702362 25.75345764 -54.36633301 24.6113739 C-54.34738439 17.11790612 -54.34738439 17.11790612 -51.80892944 14.40565491 C-49.73685965 13.07715555 -47.70438659 12.08747065 -45.43431091 11.14231873 C-44.41393738 10.60719666 -43.39356384 10.07207458 -42.3422699 9.52073669 C-41.38135437 9.06328064 -40.42043884 8.60582458 -39.43040466 8.13450623 C-38.35983826 7.62274841 -37.28927185 7.1109906 -36.18626404 6.58372498 C-34.54560974 5.80835388 -34.54560974 5.80835388 -32.87181091 5.01731873 C-31.22535583 4.23034607 -31.22535583 4.23034607 -29.54563904 3.42747498 C-27.43445914 2.42215122 -25.31922197 1.4252902 -23.19944763 0.43821716 C-21.56955083 -0.32564406 -19.94730089 -1.10693389 -18.34495544 -1.92701721 C-11.72891691 -5.1787494 -6.22575907 -3.03027569 0 0 Z " fill="#8DC1EA" transform="translate(75.43431091308594,21.857681274414063)"/>
<path d="M0 0 C3.52818415 0.59049923 6.42873146 1.51698126 9.640625 3.08203125 C10.53467041 3.51378662 11.42871582 3.94554199 12.34985352 4.39038086 C13.30690186 4.85968018 14.2639502 5.32897949 15.25 5.8125 C17.30587259 6.81013696 19.36186671 7.80752351 21.41796875 8.8046875 C22.48966309 9.32643555 23.56135742 9.84818359 24.66552734 10.38574219 C28.05663586 12.02741809 31.45797354 13.64581535 34.86328125 15.2578125 C35.98250977 15.78914795 37.10173828 16.3204834 38.25488281 16.86791992 C40.41819163 17.89448564 42.58285417 18.9182047 44.74902344 19.9387207 C45.74063477 20.41140381 46.73224609 20.88408691 47.75390625 21.37109375 C48.62345947 21.78286865 49.4930127 22.19464355 50.38891602 22.61889648 C53.52020583 24.27515702 56.2388318 25.75248967 59 28 C59.77536011 31.18077087 59.77536011 31.18077087 59.80810547 34.98413086 C59.82183197 35.67894058 59.83555847 36.37375031 59.84970093 37.08961487 C59.88625016 39.38219372 59.87856579 41.67203668 59.8671875 43.96484375 C59.87631133 45.5614155 59.88692255 47.15797939 59.8989563 48.75453186 C59.91682059 52.09961872 59.91197332 55.44375074 59.89208984 58.78881836 C59.86911014 63.07168579 59.9095161 67.35125503 59.96792412 71.63368893 C60.00465743 74.93075927 60.00406267 78.22703973 59.99264908 81.52426338 C59.9923427 83.1027241 60.00442841 84.68123846 60.02923203 86.25950432 C60.19396375 98.46079694 60.19396375 98.46079694 57.50437927 101.92808533 C55.3904389 103.30580408 53.37011552 104.14037602 51 105 C49.40117014 105.80791072 47.80931504 106.62973892 46.22387695 107.46362305 C44.48093188 108.31760303 42.73562668 109.16677894 40.98828125 110.01171875 C40.05702927 110.46601761 39.12577728 110.92031647 38.16630554 111.38838196 C36.21173891 112.3408411 34.25614036 113.29118525 32.29956055 114.23950195 C29.30866705 115.68935805 26.3210888 117.14587141 23.33398438 118.60351562 C21.42727274 119.53163922 19.52037799 120.45938674 17.61328125 121.38671875 C16.7236116 121.82006027 15.83394196 122.25340179 14.91731262 122.69987488 C3.97083499 128 3.97083499 128 0 128 C0 122.39 0 116.78 0 111 C9.71517363 105.75552574 19.48502362 100.7174669 29.4375 95.9375 C30.45013916 95.44854248 31.46277832 94.95958496 32.50610352 94.45581055 C33.45155029 94.0050415 34.39699707 93.55427246 35.37109375 93.08984375 C36.21599365 92.68628662 37.06089355 92.28272949 37.93139648 91.86694336 C40 91 40 91 42 91 C42 73.18 42 55.36 42 37 C40.02 36.34 38.04 35.68 36 35 C34.69445604 34.43833096 33.39984354 33.85003408 32.12182617 33.22827148 C31.42478073 32.89129745 30.72773529 32.55432343 30.00956726 32.20713806 C29.27808975 31.84874344 28.54661224 31.49034882 27.79296875 31.12109375 C27.02696854 30.74896255 26.26096832 30.37683136 25.47175598 29.99342346 C23.86320555 29.21100218 22.25552715 28.42678585 20.64868164 27.64086914 C18.18004321 26.43385408 15.70842761 25.23311106 13.23632812 24.03320312 C11.67169676 23.27119921 10.10723741 22.50884196 8.54296875 21.74609375 C7.80137009 21.3856749 7.05977142 21.02525604 6.29570007 20.65391541 C1.11584349 18.11584349 1.11584349 18.11584349 0 17 C-0.07325168 14.13732433 -0.09238205 11.299281 -0.0625 8.4375 C-0.05798828 7.63119141 -0.05347656 6.82488281 -0.04882812 5.99414062 C-0.03700518 3.99606244 -0.01906914 1.99802217 0 0 Z " fill="#29497B" transform="translate(64,0)"/>
<path d="M0 0 C0.07595253 7.06576669 0.12855861 14.13142844 0.16479492 21.19750977 C0.17989816 23.60217218 0.20038208 26.00680698 0.22631836 28.41137695 C0.26263351 31.86416431 0.279711 35.31658804 0.29296875 38.76953125 C0.30845261 39.84773636 0.32393646 40.92594147 0.33988953 42.03681946 C0.34011612 43.03763046 0.34034271 44.03844147 0.34057617 45.06958008 C0.34723801 45.95116287 0.35389984 46.83274567 0.36076355 47.74104309 C-0.08355997 50.52321905 -0.79185172 51.29941379 -3 53 C-4.74523926 54.04411316 -4.74523926 54.04411316 -6.68945312 54.99291992 C-7.42031128 55.35306686 -8.15116943 55.71321381 -8.9041748 56.08427429 C-9.68860962 56.46251846 -10.47304443 56.84076263 -11.28125 57.23046875 C-12.0911438 57.62575272 -12.9010376 58.02103668 -13.73547363 58.42829895 C-15.44537552 59.26083518 -17.15680107 60.0902483 -18.86962891 60.91674805 C-21.49441428 62.18480149 -24.11264983 63.46568431 -26.73046875 64.74804688 C-28.39285192 65.55546467 -30.05560027 66.36213114 -31.71875 67.16796875 C-32.89540222 67.74444405 -32.89540222 67.74444405 -34.0958252 68.33256531 C-34.82668335 68.68325577 -35.5575415 69.03394623 -36.31054688 69.39526367 C-36.95213745 69.70598312 -37.59372803 70.01670258 -38.25476074 70.33683777 C-40 71 -40 71 -43 71 C-43 54.17 -43 37.34 -43 20 C-37.72 17.36 -32.44 14.72 -27 12 C-24.93105469 10.95972656 -22.86210938 9.91945313 -20.73046875 8.84765625 C-19.80298828 8.38166016 -18.87550781 7.91566406 -17.91992188 7.43554688 C-16.04679286 6.4942962 -14.17443523 5.55150931 -12.30273438 4.60742188 C-11.39201172 4.15044922 -10.48128906 3.69347656 -9.54296875 3.22265625 C-8.73883545 2.81797119 -7.93470215 2.41328613 -7.10620117 1.99633789 C-4.70931849 0.86249319 -2.67728311 0 0 0 Z " fill="#5E9EF4" transform="translate(107,39)"/>
<path d="M0 0 C0.81134903 0.39811386 1.62269806 0.79622772 2.45863342 1.20640564 C5.03042444 2.47093298 7.59527252 3.74887378 10.16015625 5.02734375 C11.91036509 5.89087079 13.661012 6.75351057 15.41210938 7.61523438 C19.68742948 9.72153672 23.9565784 11.83988872 28.22265625 13.96484375 C27.22265625 16.96484375 27.22265625 16.96484375 25.26757812 18.18823242 C24.41744141 18.58244385 23.56730469 18.97665527 22.69140625 19.3828125 C21.74322021 19.82923096 20.79503418 20.27564941 19.81811523 20.7355957 C18.79661377 21.20312256 17.7751123 21.67064941 16.72265625 22.15234375 C14.61963372 23.12856606 12.51677049 24.10513162 10.4140625 25.08203125 C9.36750488 25.56510742 8.32094727 26.04818359 7.24267578 26.54589844 C4.51023048 27.82972803 1.81411379 29.16343387 -0.875 30.53515625 C-1.63554688 30.91647705 -2.39609375 31.29779785 -3.1796875 31.69067383 C-4.58427023 32.39725133 -5.98195524 33.11777089 -7.37109375 33.85424805 C-10.35276118 35.32564605 -12.27466245 36.0500203 -15.58984375 35.48828125 C-20.16050781 33.30377269 -24.70360517 31.08249457 -29.21484375 28.77734375 C-37.99583049 24.33420833 -46.82453485 20.05078301 -55.77734375 15.96484375 C-52.59525729 12.35075711 -49.07670445 10.37921164 -44.78125 8.36328125 C-44.11069077 8.04074371 -43.44013153 7.71820618 -42.74925232 7.38589478 C-40.61646498 6.36262946 -38.4782465 5.35131235 -36.33984375 4.33984375 C-34.9065481 3.65307987 -33.47360155 2.96558688 -32.04101562 2.27734375 C-28.29585244 0.48494937 -24.5496314 -1.30036031 -20.77734375 -3.03515625 C-19.94968506 -3.45458496 -19.12202637 -3.87401367 -18.26928711 -4.30615234 C-11.64140536 -6.24510158 -5.79314012 -2.91130257 0 0 Z " fill="#D7F1FB" transform="translate(77.77734375,23.03515625)"/>
<path d="M0 0 C0 13.2 0 26.4 0 40 C-6.03014361 37.98995213 -11.47153736 35.99347583 -17.09765625 33.20703125 C-17.8173912 32.85613937 -18.53712616 32.5052475 -19.27867126 32.14372253 C-21.54255057 31.03854405 -23.80255056 29.92568873 -26.0625 28.8125 C-27.61107644 28.05482393 -29.15990259 27.29765798 -30.70898438 26.54101562 C-34.47556326 24.6998841 -38.23868747 22.85186503 -42 21 C-38.81791354 17.38591336 -35.2993607 15.41436789 -31.00390625 13.3984375 C-30.33334702 13.07589996 -29.66278778 12.75336243 -28.97190857 12.42105103 C-26.83912123 11.39778571 -24.70090275 10.3864686 -22.5625 9.375 C-21.12920435 8.68823612 -19.6962578 8.00074313 -18.26367188 7.3125 C-2.98438621 0 -2.98438621 0 0 0 Z " fill="#EAF7FC" transform="translate(64,18)"/>
</svg>
